<?xml version="1.0" standalone="no"?>
<!DOCTYPE svg PUBLIC "-//W3C//DTD SVG 20010904//EN"
 "http://www.w3.org/TR/2001/REC-SVG-20010904/DTD/svg10.dtd">
<svg version="1.0" xmlns="http://www.w3.org/2000/svg"
 width="406.000000pt" height="406.000000pt" viewBox="0 0 406.000000 406.000000"
 preserveAspectRatio="xMidYMid meet">
<metadata>
Created by potrace 1.14, written by Peter Selinger 2001-2017
</metadata>
<g transform="translate(0.000000,406.000000) scale(0.100000,-0.100000)"
fill="#000000" stroke="none">
<path d="M1450 3860 c0 -5 5 -10 11 -10 5 0 7 5 4 10 -3 6 -8 10 -11 10 -2 0
-4 -4 -4 -10z"/>
<path d="M1579 3853 c15 -30 16 -30 -34 -27 -28 2 -45 -1 -45 -8 0 -6 -3 -8
-6 -5 -4 4 -1 13 6 22 8 9 8 15 2 15 -6 0 -14 -5 -17 -10 -4 -6 -10 -8 -15 -5
-5 3 -11 -3 -13 -12 -4 -17 -5 -17 -6 0 -1 13 -7 16 -26 13 -15 -3 -25 0 -25
7 0 8 -3 7 -9 -2 -6 -9 -11 -10 -15 -2 -4 6 -12 11 -19 11 -6 0 -3 -6 7 -13
17 -13 13 -52 -5 -41 -8 5 -14 -27 -10 -50 1 -5 -6 -3 -16 4 -28 22 -29 24
-10 17 11 -4 17 -1 17 9 0 8 -4 12 -10 9 -6 -3 -7 1 -4 9 3 9 9 15 12 14 25
-3 35 3 24 14 -8 8 -15 8 -26 -1 -11 -9 -15 -9 -20 1 -3 7 -4 3 -2 -8 2 -12 0
-28 -5 -35 -4 -8 -3 -20 4 -28 9 -11 9 -13 0 -8 -6 4 -13 2 -15 -3 -3 -10 -24
-17 -56 -19 -7 -1 -10 -6 -6 -13 4 -6 3 -8 -4 -4 -5 3 -12 1 -14 -6 -3 -7 -7
-5 -11 6 -4 10 -3 15 3 11 6 -3 10 -1 10 5 0 7 -6 10 -12 7 -7 -2 -12 -12 -11
-21 1 -12 -4 -15 -14 -12 -12 5 -14 1 -10 -14 7 -26 -7 -34 -24 -13 -8 9 -9
14 -4 11 6 -4 12 2 12 13 2 17 0 17 -13 4 -12 -11 -12 -19 -4 -35 10 -18 7
-24 -12 -22 -3 1 -12 -5 -18 -13 -10 -12 -10 -15 1 -15 11 0 11 -2 -1 -9 -24
-16 -33 -1 -13 22 10 12 14 19 9 15 -5 -4 -18 -3 -30 3 -20 9 -20 9 -3 -4 12
-10 14 -17 7 -22 -6 -4 -8 -14 -6 -23 7 -21 -71 -101 -104 -107 -13 -2 -25 -7
-29 -11 -3 -4 2 -4 12 -1 9 4 17 2 17 -3 0 -6 -4 -10 -9 -10 -5 0 -7 -10 -5
-22 5 -23 4 -23 -5 -2 -5 12 -16 26 -23 30 -11 6 -11 5 0 -8 9 -12 10 -18 2
-23 -6 -4 -9 -13 -6 -21 3 -7 1 -16 -5 -20 -6 -3 -8 -12 -5 -19 2 -7 -2 -16
-10 -19 -16 -6 -19 -26 -3 -26 5 0 8 4 5 8 -2 4 4 9 15 9 10 1 19 -3 19 -8 0
-6 -4 -8 -9 -5 -5 3 -14 -1 -21 -9 -7 -8 -16 -13 -20 -10 -5 3 -12 0 -16 -6
-4 -7 -3 -9 3 -6 6 4 14 -1 18 -11 13 -29 12 -49 -1 -49 -9 0 -10 5 -3 19 6
12 6 18 -1 18 -9 0 -15 -21 -11 -42 0 -5 -5 -8 -12 -8 -8 0 -7 -3 3 -10 9 -6
17 -5 22 3 4 6 10 8 15 4 10 -10 -18 -28 -34 -22 -7 2 -13 0 -13 -5 0 -9 12
-13 30 -12 3 0 6 -8 6 -19 0 -12 -5 -18 -13 -15 -20 8 -16 -4 10 -26 12 -11
16 -16 8 -12 -11 5 -13 3 -8 -10 6 -14 3 -17 -9 -12 -10 4 -14 2 -11 -6 2 -7
9 -12 15 -11 15 3 9 -22 -11 -41 -21 -21 -23 -33 -2 -16 8 7 16 9 16 4 7 -45
5 -52 -9 -46 -11 4 -12 7 -4 10 7 2 12 8 12 14 0 6 -8 4 -18 -5 -10 -10 -22
-14 -27 -10 -4 5 -5 2 -1 -5 4 -7 11 -10 16 -7 5 3 11 1 15 -4 3 -6 -3 -15
-14 -20 -10 -6 -22 -22 -25 -37 -8 -30 1 -67 15 -59 5 4 9 2 9 -4 0 -5 -8 -12
-17 -14 -17 -4 -17 -5 0 -6 10 0 15 -5 12 -11 -6 -9 8 -14 28 -11 5 1 6 -3 2
-9 -3 -5 -16 -8 -28 -6 -12 1 -16 1 -9 -1 7 -3 9 -9 6 -15 -4 -6 -1 -8 7 -6 8
3 22 1 33 -4 15 -8 16 -12 5 -19 -19 -12 -42 -11 -34 1 4 6 11 7 17 4 7 -4 8
-2 4 5 -6 9 -11 9 -21 1 -14 -12 -14 -35 0 -47 4 -4 5 -3 2 3 -10 18 27 23 48
8 10 -8 13 -14 6 -14 -6 0 -11 -6 -9 -13 2 -6 -7 -26 -19 -43 -13 -18 -24 -41
-26 -53 -2 -12 -8 -26 -14 -32 -6 -6 -9 -18 -6 -25 3 -8 0 -14 -7 -14 -7 0
-10 -6 -7 -14 3 -8 1 -17 -6 -20 -9 -3 -9 -5 1 -5 6 -1 12 -6 12 -12 0 -5 -6
-7 -12 -3 -7 4 -10 3 -5 -1 4 -5 -3 -20 -15 -34 -13 -14 -15 -19 -5 -12 10 8
17 9 17 3 0 -6 -8 -16 -17 -21 -23 -13 -8 -14 17 -1 13 7 21 7 26 -2 4 -6 3
-8 -3 -5 -6 4 -16 0 -23 -8 -7 -8 -15 -13 -19 -11 -4 3 -8 -4 -8 -15 -1 -10 3
-19 8 -19 6 0 7 -5 3 -12 -4 -6 -3 -8 4 -5 6 5 8 0 5 -13 -3 -11 -10 -23 -16
-27 -6 -4 -8 0 -4 11 6 14 3 15 -13 6 -11 -6 -20 -13 -20 -16 0 -3 4 -3 9 1 5
3 12 1 16 -5 4 -6 10 -8 15 -5 4 3 11 -2 14 -11 3 -8 11 -12 16 -9 12 8 40
-12 40 -28 0 -6 -6 -2 -14 8 -14 19 -15 19 -34 1 -12 -10 -26 -15 -32 -11 -6
3 -10 3 -9 -2 1 -4 1 -10 -1 -13 -8 -22 -8 -50 1 -50 5 0 7 5 4 10 -3 6 0 10
7 10 10 0 10 2 -1 9 -9 6 -10 11 -2 15 6 4 14 0 18 -10 7 -18 -9 -50 -24 -47
-5 1 -10 -5 -10 -13 0 -10 4 -11 11 -4 17 17 29 11 15 -7 -10 -11 -10 -14 -1
-9 7 4 12 2 12 -5 0 -6 -8 -9 -19 -6 -19 5 -23 -15 -6 -30 4 -4 5 -2 1 5 -9
16 16 16 32 0 17 -17 15 -33 -2 -19 -10 8 -16 9 -21 1 -3 -6 -11 -7 -17 -4 -7
4 -8 2 -4 -5 6 -8 12 -9 20 -2 16 13 27 4 19 -15 -3 -8 0 -14 7 -14 6 0 9 4 6
9 -7 11 22 36 31 27 3 -3 1 -6 -5 -6 -6 0 -9 -7 -6 -15 4 -8 2 -15 -2 -15 -5
0 -15 -14 -22 -30 -8 -17 -17 -28 -22 -25 -4 3 -7 -1 -6 -8 0 -7 -33 -44 -74
-82 -41 -38 -74 -74 -72 -80 2 -5 -3 -4 -10 4 -10 11 -10 14 0 18 14 5 16 23
3 23 -5 0 -13 -9 -16 -20 -3 -11 -11 -20 -16 -20 -6 0 -7 5 -3 12 4 7 3 8 -5
4 -9 -6 -9 -11 -1 -21 7 -9 6 -16 -5 -25 -8 -7 -12 -17 -8 -23 3 -5 2 -7 -4
-4 -5 3 -18 -8 -28 -25 -16 -27 -16 -31 -2 -25 9 3 19 3 21 -2 7 -11 -27 -10
-42 2 -8 6 -12 6 -12 -2 0 -6 7 -14 15 -17 13 -5 13 -8 -1 -21 -8 -9 -18 -12
-22 -8 -4 4 -1 10 5 12 10 4 9 8 -2 20 -17 17 -10 37 11 29 13 -5 19 6 15 27
-1 5 4 5 10 1 8 -4 9 -3 5 4 -4 7 -2 12 4 12 6 0 8 5 4 12 -5 7 -3 8 6 3 9 -6
11 -4 5 5 -5 9 -4 11 3 6 8 -5 10 -1 5 10 -5 15 -7 15 -15 0 -5 -9 -13 -14
-19 -11 -5 4 -6 -2 -2 -11 4 -11 3 -15 -5 -10 -7 4 -10 -1 -7 -14 3 -18 -7
-25 -35 -22 -4 0 -6 -10 -6 -24 0 -13 4 -24 8 -24 5 0 4 -8 -1 -19 -6 -10 -7
-21 -4 -25 3 -3 0 -6 -7 -6 -7 0 -10 -3 -7 -6 4 -4 13 -1 22 6 8 7 15 9 15 5
0 -4 7 -2 15 5 10 9 15 9 15 1 0 -6 -6 -11 -12 -11 -9 0 -8 -4 2 -10 8 -5 10
-10 5 -10 -6 0 -16 5 -23 12 -9 9 -12 7 -12 -10 0 -12 3 -21 8 -20 4 2 9 -1
10 -7 2 -5 8 -19 14 -30 9 -20 9 -20 -6 -1 -9 11 -16 18 -17 15 0 -2 -2 -14
-5 -27 -2 -14 0 -21 6 -17 5 3 10 1 10 -5 0 -7 -7 -9 -16 -6 -9 3 -18 6 -21 6
-3 0 -1 6 5 13 8 10 5 16 -11 27 -20 12 -21 12 -9 -3 12 -14 11 -19 -1 -37 -7
-11 -18 -17 -23 -12 -4 4 -3 0 4 -9 6 -9 10 -18 7 -21 -3 -2 2 -5 10 -5 10 0
12 4 5 12 -5 6 -5 16 -1 23 6 10 11 9 22 -4 10 -13 11 -16 1 -10 -16 10 -13
-24 3 -37 6 -5 0 -6 -12 -2 -15 4 -25 0 -32 -13 -8 -14 -7 -19 5 -19 9 0 13 6
9 16 -5 12 -3 13 6 4 9 -9 7 -18 -9 -41 -17 -23 -19 -32 -9 -42 7 -7 -1 -4
-18 6 -16 11 -26 13 -22 7 8 -13 -8 -53 -27 -65 -7 -5 -7 -8 2 -8 7 0 10 -5 7
-10 -4 -6 -11 -8 -16 -5 -5 4 -6 -2 -2 -11 5 -14 3 -16 -11 -11 -10 4 -15 3
-11 -4 4 -5 16 -7 28 -4 21 6 20 5 -3 -15 -14 -12 -19 -19 -13 -15 9 4 11 1 7
-9 -3 -9 -11 -13 -18 -9 -8 4 -8 2 1 -7 13 -14 6 -43 -9 -34 -5 3 -9 0 -7 -7
3 -29 -1 -40 -14 -33 -9 6 -9 4 -1 -7 16 -19 1 -56 -27 -64 l-22 -7 24 -14 24
-14 -24 2 c-13 2 -25 -3 -27 -10 -1 -7 0 -8 2 -3 3 6 12 7 20 4 11 -4 8 -10
-11 -25 -14 -11 -25 -24 -25 -31 0 -6 6 -2 14 9 8 10 18 16 22 11 4 -4 2 -7
-4 -7 -7 0 -12 -6 -12 -14 0 -8 -6 -17 -12 -19 -10 -4 -10 -6 0 -6 7 -1 10 -6
7 -11 -5 -8 -12 -7 -23 2 -13 10 -13 8 1 -9 14 -16 15 -23 6 -29 -8 -5 -10 -3
-4 6 5 9 4 11 -4 6 -9 -6 -9 -11 1 -24 11 -13 11 -14 -1 -7 -11 6 -13 4 -8 -8
4 -12 1 -17 -11 -17 -13 0 -14 -2 -4 -8 14 -9 6 -42 -10 -42 -6 0 -4 8 3 18
13 15 12 16 -3 3 -14 -10 -15 -17 -7 -33 10 -18 8 -19 -13 -13 -23 7 -23 7 -3
-9 l20 -15 -20 -1 c-14 0 -16 -3 -7 -8 10 -7 10 -15 -1 -40 -7 -18 -17 -29
-22 -25 -4 5 -6 -2 -3 -14 3 -12 -1 -30 -9 -40 -8 -10 -11 -12 -7 -4 5 10 3
12 -5 7 -9 -6 -9 -11 1 -24 11 -13 11 -14 -1 -7 -11 6 -13 4 -8 -9 4 -10 1
-19 -9 -23 -9 -3 -13 -12 -9 -21 4 -12 3 -13 -10 -2 -13 11 -14 10 -9 -5 6
-14 4 -16 -7 -11 -8 4 -6 1 3 -6 15 -13 15 -15 -5 -28 -20 -12 -21 -12 -8 4
12 14 12 16 -3 10 -18 -7 -21 -20 -7 -28 10 -7 9 -30 -2 -33 -17 -6 -19 -2 -6
14 8 9 9 14 2 10 -6 -4 -14 -1 -17 5 -3 7 -3 1 -1 -14 2 -19 -2 -31 -13 -38
-12 -6 -13 -9 -3 -10 10 0 10 -6 -4 -26 -9 -15 -12 -23 -6 -20 6 4 11 3 11 -3
0 -5 -8 -15 -17 -20 -12 -7 -14 -10 -4 -11 11 0 11 -3 1 -15 -10 -12 -10 -15
3 -15 10 0 15 7 12 20 -2 11 0 20 6 20 12 0 5 -43 -8 -47 -6 -2 -8 -16 -6 -31
4 -21 2 -24 -6 -12 -8 11 -10 8 -5 -16 4 -19 1 -34 -5 -38 -6 -4 -9 -12 -5
-17 3 -6 760 -9 2005 -9 1788 1 1999 2 1999 16 0 8 -4 13 -8 10 -5 -3 -9 1 -9
9 0 8 4 15 9 15 4 0 8 -5 8 -11 0 -5 5 -7 12 -3 8 5 4 13 -11 26 -13 10 -19
18 -14 18 5 0 14 -5 21 -12 9 -9 12 -9 12 -1 0 7 -5 15 -10 18 -6 4 -8 16 -4
28 3 12 3 19 -1 15 -4 -4 -16 -3 -26 2 -13 7 -22 6 -33 -6 -9 -9 -16 -11 -16
-4 0 6 -5 8 -12 4 -7 -5 -8 -3 -3 6 6 9 4 12 -7 8 -9 -4 -15 0 -15 8 0 18 6
18 29 -3 10 -9 18 -11 18 -5 0 6 6 12 12 15 7 2 2 2 -10 0 -17 -3 -21 0 -16 8
4 7 3 9 -4 5 -6 -3 -18 1 -26 10 -10 9 -16 11 -16 4 0 -7 -7 -10 -14 -7 -10 4
-13 1 -9 -9 3 -7 0 -14 -7 -14 -6 0 -9 4 -5 9 3 5 1 12 -5 16 -6 4 -7 11 -4
17 4 6 3 13 -2 17 -19 13 -34 60 -22 67 7 5 5 12 -7 21 -11 7 -14 13 -8 13 12
0 39 -29 36 -39 -1 -3 0 -8 3 -10 7 -7 -5 38 -16 59 -6 11 -8 24 -5 29 3 5 1
11 -4 13 -4 1 -5 12 0 23 7 18 8 18 9 -5 2 -14 2 -29 1 -35 0 -5 9 -21 20 -35
l21 -25 -16 27 c-19 33 -21 44 -3 29 10 -8 14 -7 14 4 0 8 -4 12 -8 10 -4 -3
-9 2 -12 9 -4 10 0 13 14 11 10 -2 19 1 19 7 0 5 -7 8 -15 5 -8 -4 -17 -2 -20
3 -3 4 7 13 22 18 18 7 22 11 11 11 -10 1 -17 4 -17 9 3 19 -2 33 -11 27 -6
-3 -7 1 -4 9 3 9 10 16 16 16 5 0 7 -4 4 -9 -3 -5 2 -15 12 -22 15 -13 16 -12
3 4 -7 9 -10 17 -6 17 4 0 2 7 -6 16 -11 13 -8 19 14 38 29 25 34 45 15 64 -7
7 -8 12 -4 12 5 0 1 11 -8 24 -10 15 -12 27 -6 31 9 6 14 -1 11 -17 0 -5 2 -7
7 -7 18 3 22 -2 13 -19 -7 -14 -6 -19 3 -19 15 0 14 30 -2 50 -7 7 -8 17 -4
21 4 4 2 7 -3 6 -29 -6 -38 2 -16 14 15 8 20 16 12 20 -6 4 -11 3 -11 -2 0 -5
-8 -12 -18 -14 -16 -5 -18 1 -17 41 1 26 5 53 10 61 6 9 4 11 -5 5 -8 -5 -11
-3 -8 6 3 8 14 13 24 11 16 -2 16 -1 4 7 -10 7 -20 5 -32 -6 -18 -16 -19 -14
-22 17 -1 8 -8 14 -16 12 -11 -3 -11 0 0 12 15 19 24 21 14 4 -5 -7 -3 -8 5
-3 9 5 9 11 3 17 -6 6 -9 16 -8 22 2 6 1 8 -1 4 -2 -4 -12 -4 -21 -1 -13 4
-12 2 3 -11 20 -17 20 -17 -2 -7 -18 9 -22 26 -13 51 1 3 2 8 1 13 0 4 4 7 9
7 6 0 10 4 10 10 0 5 -6 9 -12 7 -7 -1 -12 3 -11 10 2 9 -24 11 -34 3 -2 -2
-9 -3 -15 -4 -7 -1 -12 -8 -10 -15 1 -7 -2 -9 -9 -6 -8 5 -8 10 0 18 13 13 15
31 3 23 -4 -2 -8 6 -8 19 0 17 3 21 11 15 13 -11 25 -3 25 14 0 6 -5 4 -10 -4
-7 -11 -10 -12 -10 -2 0 9 -7 11 -19 7 -11 -3 -22 -1 -25 4 -4 5 -15 8 -26 6
-11 -2 -22 1 -26 6 -3 5 -2 9 3 8 4 -1 10 0 13 1 21 8 39 7 34 -2 -5 -7 -2 -8
6 -3 9 6 11 4 5 -5 -5 -8 -4 -11 3 -6 25 15 0 34 -41 32 -40 -2 -42 -1 -44 28
-1 27 0 28 7 10 9 -24 30 -41 30 -25 0 5 -6 11 -12 14 -10 3 -10 9 -1 25 8 14
9 23 3 27 -6 4 -9 1 -8 -5 3 -14 -26 -22 -48 -13 -8 3 -11 9 -9 14 3 4 -3 14
-15 21 -11 7 -20 17 -20 22 0 4 8 2 18 -5 16 -13 16 -13 2 5 -12 15 -12 20 -2
23 6 3 9 9 6 14 -3 6 -12 3 -19 -7 -11 -16 -14 -15 -27 12 -16 32 -17 42 -5
64 5 8 0 6 -10 -6 l-19 -21 -19 26 -19 26 22 -19 c25 -22 31 -4 7 21 -9 9 -13
23 -10 34 4 11 2 19 -5 19 -6 0 -9 -4 -6 -8 2 -4 -5 -9 -17 -9 -18 -2 -17 1 8
17 32 21 27 27 -7 9 -16 -9 -19 -8 -13 2 6 9 3 11 -8 6 -9 -3 -19 -2 -23 4
-10 17 3 22 25 10 13 -8 22 -8 26 -1 4 6 3 10 -2 9 -20 -3 -34 2 -28 11 4 6
-1 7 -11 3 -14 -5 -15 -3 -4 18 l13 24 -20 -20 c-11 -11 -18 -24 -15 -30 3 -5
-2 -4 -11 4 -18 14 -23 26 -8 16 5 -3 12 -1 16 5 3 5 -2 10 -13 10 -17 0 -55
28 -63 47 -2 4 -19 20 -37 35 -19 16 -28 29 -21 33 6 4 8 13 5 21 -3 8 0 14 7
14 6 0 1 7 -12 17 -23 15 -25 15 -37 -2 -8 -10 -14 -15 -14 -9 1 15 26 44 33
37 4 -3 7 -1 7 6 0 7 -9 9 -26 5 -19 -5 -25 -4 -20 5 4 6 14 11 22 11 16 0 19
16 4 25 -5 3 -7 12 -3 20 6 18 -13 20 -23 3 -5 -7 -3 -8 6 -3 9 5 11 4 6 -3
-12 -21 -24 -13 -23 16 0 15 2 22 4 15 5 -13 33 -6 33 9 0 5 -5 6 -12 2 -14
-9 21 41 51 73 12 12 21 27 21 33 0 5 4 10 8 10 4 0 9 10 9 22 1 13 7 24 13
26 5 2 7 9 3 15 -15 24 -11 37 10 37 17 0 19 2 7 9 -8 6 -18 7 -23 4 -5 -3 -5
2 0 12 6 10 8 27 5 38 -4 15 -2 18 8 12 9 -6 11 -4 6 4 -5 7 -14 10 -22 7 -7
-3 -16 0 -20 6 -4 7 -3 8 4 4 7 -4 12 -1 12 9 0 10 -5 13 -12 9 -9 -6 -9 -3 0
9 8 9 11 21 7 26 -4 7 1 9 12 5 17 -5 17 -5 0 6 -9 6 -23 8 -30 4 -6 -4 -2 3
11 15 12 12 22 27 22 34 0 8 -3 8 -9 -1 -4 -8 -11 -12 -15 -10 -4 1 -13 -8
-20 -21 -9 -15 -16 -20 -20 -12 -4 6 -3 11 3 11 10 0 27 39 23 54 -2 5 4 6 13
3 8 -4 15 -2 15 4 0 6 5 7 12 3 7 -4 8 -3 4 4 -4 7 -15 8 -30 2 -16 -6 -28 -5
-37 3 -11 10 -11 9 -2 -3 10 -13 8 -16 -10 -17 -15 -2 -18 0 -9 6 8 5 14 12
13 17 0 5 10 8 22 6 11 -1 18 1 14 4 -4 4 -15 8 -25 9 -9 1 -28 7 -41 12 -24
10 -24 10 -3 15 12 4 20 2 16 -3 -3 -5 0 -9 5 -9 6 0 11 7 11 15 0 10 -9 14
-30 11 -24 -3 -28 -1 -19 10 6 7 18 10 27 7 14 -4 14 -3 3 5 -8 6 -21 7 -30 4
-14 -5 -14 -3 -2 11 15 19 2 24 -16 6 -9 -9 -11 -7 -9 7 2 11 1 24 -3 29 -3 6
-7 18 -8 29 -3 15 -1 16 11 7 11 -9 16 -9 22 0 4 7 3 9 -4 5 -6 -3 -15 1 -20
10 -6 11 -11 13 -16 5 -4 -6 -13 -11 -19 -11 -8 0 -7 4 2 9 12 8 12 13 3 24
-10 11 -9 17 1 26 8 6 18 7 22 3 5 -4 5 -1 1 6 -4 7 -11 10 -16 7 -5 -3 -11
-1 -14 4 -4 5 -2 12 4 16 5 3 10 12 10 18 0 7 -7 3 -15 -7 -10 -13 -11 -23 -5
-31 7 -8 5 -12 -5 -12 -8 0 -12 4 -9 8 2 4 0 10 -6 14 -6 3 -8 18 -6 32 4 19
2 23 -10 19 -9 -3 -12 -2 -9 5 4 5 16 7 28 4 12 -3 7 2 -10 12 -18 9 -33 21
-33 26 0 4 -7 15 -15 23 -8 9 -15 21 -15 27 0 7 12 -5 27 -26 14 -20 31 -37
37 -36 6 0 6 3 -2 6 -6 2 -10 9 -6 14 3 5 0 9 -6 9 -6 0 -8 5 -5 10 4 6 1 9
-7 8 -7 -2 -14 4 -14 12 -1 8 -2 19 -3 23 0 4 -11 3 -22 -4 -13 -7 -19 -7 -15
-1 3 6 2 13 -4 17 -13 8 -13 25 0 25 6 0 9 -3 8 -7 -2 -5 1 -9 6 -11 6 -1 11
4 12 12 1 9 -1 15 -4 15 -19 -3 -32 2 -32 12 0 5 6 7 13 3 7 -4 8 -3 4 2 -5 5
-16 9 -25 9 -9 0 -17 7 -17 15 0 8 -8 21 -17 28 -10 7 -18 22 -18 33 0 10 -5
19 -11 19 -6 0 -9 7 -6 15 4 8 1 17 -5 21 -7 5 -8 2 -3 -6 5 -9 4 -11 -4 -6
-6 4 -9 11 -6 16 8 13 -36 51 -49 43 -6 -4 -5 1 3 10 7 9 18 14 24 10 6 -3 7
-1 3 5 -5 9 -14 7 -32 -4 -27 -18 -32 -13 -9 9 13 13 13 16 -1 21 -8 3 -13 2
-10 -3 7 -11 -22 -36 -31 -27 -3 3 -1 6 5 6 17 0 14 21 -6 48 -17 21 -18 22
-18 3 0 -11 4 -17 9 -14 5 3 4 -4 -2 -14 -6 -11 -7 -24 -3 -29 4 -5 -5 1 -19
14 -30 26 -47 29 -28 5 7 -10 1 -7 -14 6 -22 20 -27 21 -27 8 0 -9 -4 -18 -9
-21 -5 -4 -7 3 -4 14 4 16 2 19 -11 14 -9 -3 -16 -1 -16 4 0 6 -9 9 -19 7 -13
-2 -18 1 -15 9 3 7 -3 19 -12 27 -15 12 -16 12 -10 -9 5 -13 3 -22 -3 -22 -6
0 -10 3 -9 8 2 9 -10 40 -24 67 -8 14 -8 20 1 23 6 2 8 8 5 13 -3 6 -11 6 -20
-2 -7 -6 -11 -15 -8 -20 3 -5 0 -9 -5 -9 -14 0 -14 13 1 28 9 9 9 12 -4 12 -8
0 -27 9 -40 20 -14 10 -29 16 -34 12 -5 -4 -3 0 4 9 6 9 9 19 5 23 -4 4 1 4
12 1 15 -5 16 -4 6 3 -8 6 -9 12 -3 16 6 3 13 2 17 -4 3 -5 11 -10 18 -10 6 0
2 6 -9 14 -14 11 -22 11 -32 3 -10 -8 -16 -7 -23 4 -5 8 -9 18 -9 23 0 5 -3 7
-6 4 -3 -4 -1 -16 6 -27 7 -15 7 -21 0 -21 -6 0 -13 7 -16 15 -4 8 -11 15 -17
15 -5 0 -2 -9 7 -19 13 -15 14 -20 4 -23 -7 -3 10 -19 40 -37 43 -27 50 -36
41 -47 -6 -8 -14 -14 -16 -14 -3 0 1 8 8 17 12 15 12 16 -4 10 -11 -4 -16 -3
-12 3 6 10 -7 14 -31 11 -11 -1 -39 26 -39 38 0 3 -4 5 -10 3 -5 -2 -7 0 -3 4
4 4 0 13 -10 20 -15 12 -15 15 -2 24 8 5 10 10 5 10 -6 0 -16 -5 -23 -10 -6
-6 -10 -8 -8 -4 2 3 -4 14 -15 25 -11 11 -17 24 -14 30 4 5 3 9 -2 8 -20 -3
-33 2 -33 14 0 7 -11 21 -25 31 -13 10 -22 22 -19 27 3 5 -1 9 -9 9 -36 0 -69
81 -42 103 6 5 3 7 -7 4 -20 -7 -43 17 -32 34 4 7 3 9 -4 5 -5 -3 -13 0 -16 6
-3 7 -3 3 0 -9 4 -18 1 -21 -15 -18 -12 2 -21 0 -21 -4 0 -16 13 -20 33 -10
15 9 18 8 12 -2 -5 -8 -4 -10 3 -5 8 5 10 2 6 -8 -3 -9 -10 -16 -16 -16 -5 0
-6 5 -2 12 5 7 2 9 -9 5 -19 -7 -39 15 -31 36 3 8 0 18 -7 23 -7 4 -10 3 -5
-4 3 -6 1 -14 -6 -18 -7 -4 -10 -4 -6 1 4 4 -1 22 -12 40 -11 18 -16 36 -12
40 4 5 1 5 -5 1 -8 -4 -13 -2 -13 5 0 7 -3 10 -6 7 -3 -4 2 -17 11 -31 18 -29
5 -46 -16 -20 -10 12 -10 14 -1 9 6 -4 12 -3 12 2 0 15 -13 22 -24 12 -8 -6
-12 -2 -13 13 -2 17 0 19 7 7 8 -13 10 -12 10 3 0 20 -23 23 -39 3 -9 -11 -9
-15 1 -19 9 -4 10 -6 1 -6 -19 -1 -37 38 -24 53 11 13 -6 18 -61 18 -15 0 -25
5 -22 10 3 5 -3 4 -14 -3 -12 -7 -18 -17 -16 -21 5 -8 -47 12 -56 22 -3 3 -14
7 -25 8 -11 2 -22 8 -23 13 -2 5 -13 14 -25 20 -19 9 -20 8 -6 -3 14 -11 8
-13 -41 -13 -32 0 -56 3 -54 7 2 4 13 5 24 3 12 -2 18 0 15 6 -4 5 -10 7 -15
4 -5 -3 -11 3 -13 12 -4 17 -5 17 -6 1 0 -10 -4 -18 -7 -18 -4 0 -13 8 -21 18
-13 15 -13 15 -4 -5z m-149 -38 c-5 -7 -9 -14 -7 -16 1 -2 0 -3 -2 -1 -11 7
-7 29 5 29 9 0 11 -4 4 -12z m446 -34 c11 9 14 8 14 -2 0 -11 2 -11 10 1 5 8
10 10 10 4 0 -6 -8 -18 -17 -25 -14 -12 -15 -12 -9 0 7 10 3 12 -13 6 -16 -5
-21 -2 -20 12 0 11 3 13 6 5 4 -10 8 -10 19 -1z m51 -15 c-3 -7 0 -20 6 -27
10 -11 9 -11 -4 -1 -9 6 -19 8 -24 4 -4 -4 -1 3 6 16 15 25 24 29 16 8z m244
-170 c-6 -7 -7 -17 -3 -21 4 -5 1 -5 -6 -1 -9 6 -10 11 -3 20 6 7 7 17 3 21
-4 5 -1 5 6 1 9 -6 10 -11 3 -20z m-1227 -182 c3 -8 2 -12 -4 -9 -6 3 -10 10
-10 16 0 14 7 11 14 -7z m1511 -74 c-3 -5 -10 -10 -16 -10 -5 0 -9 5 -9 10 0
6 7 10 16 10 8 0 12 -4 9 -10z m-1534 -47 c13 -16 12 -17 -3 -4 -10 7 -18 15
-18 17 0 8 8 3 21 -13z m1633 -69 c3 -8 2 -12 -4 -9 -6 3 -10 10 -10 16 0 14
7 11 14 -7z m-1619 -564 c4 -6 1 -9 -7 -8 -7 2 -12 -3 -10 -10 1 -8 -2 -11 -8
-7 -5 3 -10 -1 -10 -9 0 -9 -4 -16 -10 -16 -16 0 -12 12 12 37 25 26 25 26 33
13z m-28 -74 c4 -4 3 -6 -3 -4 -7 2 -11 -1 -10 -7 0 -5 6 -8 11 -7 6 2 6 0 2
-5 -5 -4 -14 -8 -20 -8 -7 0 -12 -7 -12 -15 0 -8 6 -14 13 -12 8 1 11 -2 7 -8
-5 -8 -11 -8 -20 0 -9 8 -15 8 -20 0 -3 -5 -2 -10 3 -10 6 0 9 -11 8 -24 0
-13 -3 -23 -6 -21 -9 5 -29 -23 -22 -31 4 -4 1 -4 -6 0 -11 7 -10 11 2 25 8 9
13 25 12 36 -2 11 1 25 6 32 5 7 7 16 4 21 -3 6 1 15 9 22 8 7 13 16 10 20 -6
10 22 7 32 -4z m-7 -162 c0 -8 -19 -13 -24 -6 -3 5 1 9 9 9 8 0 15 -2 15 -3z
m2308 -19 c-3 -3 -9 2 -12 12 -6 14 -5 15 5 6 7 -7 10 -15 7 -18z m-2373 -36
c-4 -12 -3 -19 2 -16 5 3 9 -5 9 -19 0 -13 -4 -24 -8 -24 -4 0 -8 -8 -9 -17 0
-10 -3 -13 -5 -6 -3 7 0 21 5 32 9 17 8 22 -9 31 -11 6 -18 15 -15 21 4 5 11
7 16 4 5 -4 9 -1 9 4 0 6 3 11 6 11 3 0 2 -10 -1 -21z m2420 1 c-3 -5 -14 -10
-23 -9 -14 0 -13 2 3 9 27 11 27 11 20 0z m-2365 -86 c0 -8 -19 -13 -24 -6 -3
5 1 9 9 9 8 0 15 -2 15 -3z m-25 -73 c-3 -2 -11 2 -20 9 -20 16 -19 6 1 -26 9
-13 14 -27 10 -31 -3 -3 -6 -1 -6 6 0 7 -5 9 -10 6 -14 -9 6 -35 23 -31 7 1 9
1 4 -1 -4 -3 -4 -10 -1 -15 4 -7 2 -8 -4 -4 -14 9 -15 1 -3 -23 8 -14 6 -18
-7 -18 -28 0 -44 17 -31 33 6 8 7 14 2 14 -5 0 -9 9 -10 20 -1 11 3 20 8 20 6
0 7 5 3 12 -4 7 -3 8 4 4 7 -4 12 -3 12 3 0 5 -8 15 -17 20 -15 9 -16 12 -4
20 14 9 56 -7 46 -18z m2330 -342 c11 2 17 -1 12 -5 -4 -4 -23 -8 -42 -9 -28
-2 -33 1 -24 11 6 8 16 11 23 7 6 -4 20 -6 31 -4z m-15 -49 c12 -7 10 -9 -8
-7 -12 0 -22 5 -22 9 0 11 12 10 30 -2z m56 -45 c-1 -9 -5 -15 -9 -15 -4 0
-13 0 -19 0 -9 0 -8 4 2 10 8 5 11 10 7 10 -5 0 -5 5 -2 10 9 14 24 3 21 -15z
m-2651 -175 c3 -5 1 -10 -4 -10 -6 0 -11 5 -11 10 0 6 2 10 4 10 3 0 8 -4 11
-10z m-58 -125 c0 -8 -4 -12 -9 -9 -5 3 -6 10 -3 15 9 13 12 11 12 -6z m-77
-134 c0 -5 -7 -11 -14 -14 -10 -4 -13 -1 -9 9 6 15 23 19 23 5z m-25 -61 c-3
-5 -11 -10 -16 -10 -6 0 -7 5 -4 10 3 6 11 10 16 10 6 0 7 -4 4 -10z m3275
-99 c0 -4 -6 -8 -13 -8 -8 0 -14 6 -14 13 0 7 6 10 14 7 7 -3 13 -8 13 -12z
m86 -76 c1 -8 -2 -15 -7 -15 -5 0 -9 5 -9 10 0 6 -8 11 -17 11 -17 1 -17 2 0
6 10 3 14 10 11 16 -5 8 -3 8 6 0 8 -7 15 -20 16 -28z m-25 -32 c13 -16 12
-17 -3 -4 -10 7 -18 15 -18 17 0 8 8 3 21 -13z m89 -131 c0 -5 -7 -9 -15 -9
-8 0 -12 4 -9 9 3 4 9 8 15 8 5 0 9 -4 9 -8z m-22 -337 c-3 -3 -9 2 -12 12 -6
14 -5 15 5 6 7 -7 10 -15 7 -18z m29 -20 c0 -8 -6 -15 -14 -15 -17 0 -17 17 0
23 6 3 12 6 13 6 0 1 1 -6 1 -14z m-3787 -204 c0 -5 -7 -11 -14 -14 -10 -4
-13 -1 -9 9 6 15 23 19 23 5z m3821 -70 c-6 -10 -7 -22 -3 -26 4 -5 1 -5 -6
-1 -9 5 -9 12 -2 27 6 10 13 19 16 19 2 0 0 -8 -5 -19z m98 -37 c4 3 8 -1 8
-9 0 -8 -4 -15 -9 -15 -4 0 -8 5 -8 11 0 5 -4 7 -10 4 -6 -4 -7 1 -3 11 4 11
8 13 11 6 2 -7 7 -10 11 -8z m-50 -18 c9 -11 9 -16 -1 -22 -7 -4 -10 -4 -6 1
4 4 3 14 -3 22 -6 7 -9 13 -6 13 2 0 10 -6 16 -14z"/>
<path d="M826 2145 c4 -8 11 -15 16 -15 6 0 5 6 -2 15 -7 8 -14 15 -16 15 -2
0 -1 -7 2 -15z"/>
<path d="M826 2112 c-3 -6 -1 -14 5 -17 15 -10 25 3 12 16 -7 7 -13 7 -17 1z"/>
<path d="M1650 3860 c0 -5 5 -10 11 -10 5 0 7 5 4 10 -3 6 -8 10 -11 10 -2 0
-4 -4 -4 -10z"/>
<path d="M1540 3846 c0 -2 7 -6 15 -10 8 -3 15 -1 15 4 0 6 -7 10 -15 10 -8 0
-15 -2 -15 -4z"/>
<path d="M1786 3817 c3 -10 9 -15 12 -12 3 3 0 11 -7 18 -10 9 -11 8 -5 -6z"/>
<path d="M1890 3820 c0 -5 5 -10 11 -10 5 0 7 5 4 10 -3 6 -8 10 -11 10 -2 0
-4 -4 -4 -10z"/>
<path d="M1835 3810 c-4 -6 -11 -8 -16 -5 -5 4 -9 1 -9 -4 0 -16 16 -13 30 4
7 8 10 15 7 15 -3 0 -9 -5 -12 -10z"/>
<path d="M1285 3793 c-13 -28 -15 -64 -4 -57 6 3 8 11 6 17 -2 7 0 20 5 30 5
10 8 21 5 23 -2 3 -8 -3 -12 -13z"/>
<path d="M1229 3783 c-13 -16 -12 -17 4 -4 9 7 17 15 17 17 0 8 -8 3 -21 -13z"/>
<path d="M1973 3793 c4 -7 0 -16 -10 -22 -10 -5 -14 -13 -10 -18 5 -4 13 0 18
9 6 11 16 15 27 11 18 -7 17 -5 -12 17 -11 8 -17 10 -13 3z"/>
<path d="M1235 3749 c-11 -16 -1 -19 13 -3 7 8 8 14 3 14 -5 0 -13 -5 -16 -11z"/>
<path d="M1166 3738 c3 -4 9 -8 15 -8 5 0 9 4 9 8 0 5 -7 9 -15 9 -8 0 -12 -4
-9 -9z"/>
<path d="M2066 3715 c3 -7 12 -16 19 -19 9 -3 12 0 9 9 -3 7 -12 16 -19 19 -9
3 -12 0 -9 -9z"/>
<path d="M1095 3680 c-3 -5 -1 -10 4 -10 6 0 11 5 11 10 0 6 -2 10 -4 10 -3 0
-8 -4 -11 -10z"/>
<path d="M1110 3652 c0 -5 7 -9 15 -9 8 0 12 4 9 9 -3 4 -9 8 -15 8 -5 0 -9
-4 -9 -8z"/>
<path d="M2211 3625 c-1 -5 8 -21 18 -34 14 -18 20 -21 26 -11 6 9 4 11 -5 5
-10 -6 -12 -4 -7 9 4 9 3 15 -2 11 -6 -3 -14 3 -20 12 -6 10 -10 14 -10 8z"/>
<path d="M1053 3586 c3 -7 0 -20 -6 -27 -10 -11 -9 -11 5 0 15 11 15 41 1 41
-3 0 -3 -6 0 -14z"/>
<path d="M2195 3590 c-6 -10 25 -64 33 -56 2 3 14 0 26 -6 18 -9 18 -7 -4 14
-14 13 -29 22 -34 20 -5 -3 -7 2 -3 11 7 18 -8 33 -18 17z"/>
<path d="M2255 3560 c-3 -5 -1 -10 4 -10 6 0 11 5 11 10 0 6 -2 10 -4 10 -3 0
-8 -4 -11 -10z"/>
<path d="M2285 3540 c-3 -6 1 -7 9 -4 18 7 21 14 7 14 -6 0 -13 -4 -16 -10z"/>
<path d="M991 3527 c-8 -10 -7 -14 2 -14 8 0 14 6 14 14 0 7 -1 13 -2 13 -2 0
-8 -6 -14 -13z"/>
<path d="M2270 3506 c0 -2 7 -7 16 -10 8 -3 12 -2 9 4 -6 10 -25 14 -25 6z"/>
<path d="M2336 3482 c-3 -5 1 -9 9 -9 8 0 12 4 9 9 -3 4 -7 8 -9 8 -2 0 -6 -4
-9 -8z"/>
<path d="M2370 3479 c0 -5 5 -7 10 -4 6 3 10 8 10 11 0 2 -4 4 -10 4 -5 0 -10
-5 -10 -11z"/>
<path d="M2433 3450 c-1 -11 2 -20 7 -20 4 0 7 7 6 15 -3 23 -12 26 -13 5z"/>
<path d="M2390 3446 c0 -2 7 -7 16 -10 8 -3 12 -2 9 4 -6 10 -25 14 -25 6z"/>
<path d="M2393 3415 c0 -7 6 -11 14 -8 7 3 13 6 13 8 0 2 -6 5 -13 8 -8 3 -14
-1 -14 -8z"/>
<path d="M893 3405 c0 -8 4 -12 9 -9 5 3 6 10 3 15 -9 13 -12 11 -12 -6z"/>
<path d="M2451 3413 c-1 -17 16 -25 25 -12 4 7 3 9 -4 5 -5 -3 -13 0 -15 6 -4
9 -6 10 -6 1z"/>
<path d="M2496 3398 c3 -4 11 -5 19 -1 21 7 19 12 -4 10 -11 0 -18 -5 -15 -9z"/>
<path d="M2540 3386 c0 -2 8 -10 18 -17 15 -13 16 -12 3 4 -13 16 -21 21 -21
13z"/>
<path d="M2380 3366 c0 -2 7 -7 16 -10 8 -3 12 -2 9 4 -6 10 -25 14 -25 6z"/>
<path d="M2526 3354 c-8 -20 2 -36 16 -28 6 4 8 2 5 -4 -4 -5 -15 -9 -25 -7
-9 2 -21 4 -27 4 -5 1 -3 5 5 11 20 12 6 24 -16 12 -15 -9 -15 -11 7 -25 14
-9 34 -18 44 -20 32 -4 47 -17 37 -30 -9 -12 10 -61 20 -51 3 3 14 -6 25 -19
17 -23 20 -23 30 -9 10 15 11 15 10 -3 -2 -14 4 -20 20 -20 12 0 25 -3 29 -8
4 -4 16 1 27 10 19 16 20 16 14 1 -3 -9 1 -22 9 -28 9 -8 14 -9 14 -2 0 6 -6
13 -12 15 -10 4 -10 6 0 6 9 1 10 5 0 20 -11 18 -13 18 -25 3 -13 -15 -13 -14
-8 8 l6 25 -14 -23 c-7 -12 -16 -20 -20 -16 -4 4 -1 14 6 22 10 13 9 14 -2 7
-11 -6 -13 -4 -8 9 4 11 3 15 -4 11 -6 -4 -8 -12 -6 -19 3 -6 -3 -18 -11 -26
-14 -13 -15 -12 -9 4 5 12 0 24 -15 37 -13 10 -18 18 -12 19 5 0 15 -5 22 -12
7 -7 12 -8 12 -4 0 5 -8 15 -17 23 -17 14 -17 14 2 8 17 -5 18 -4 7 7 -11 11
-16 10 -28 -6 -8 -11 -14 -16 -14 -12 0 5 -7 3 -15 -4 -18 -15 -19 -1 -1 22 7
10 16 14 21 10 4 -4 2 2 -5 14 -7 11 -25 26 -41 33 -16 7 -29 19 -29 26 0 21
-17 27 -24 9z m50 -49 c4 -8 10 -13 14 -10 20 12 18 -14 -3 -31 -12 -11 -16
-12 -10 -4 14 19 -9 56 -28 44 -8 -4 -10 -3 -5 4 10 17 26 15 32 -3z m68 -107
c-8 -12 -34 11 -34 30 0 13 3 12 20 -3 11 -10 17 -22 14 -27z"/>
<path d="M2580 3336 c0 -2 7 -7 16 -10 8 -3 12 -2 9 4 -6 10 -25 14 -25 6z"/>
<path d="M2650 3323 c0 -6 8 -17 18 -24 16 -13 16 -13 2 6 -8 11 -16 22 -17
24 -2 2 -3 0 -3 -6z"/>
<path d="M2427 3309 c7 -7 15 -10 18 -7 3 3 -2 9 -12 12 -14 6 -15 5 -6 -5z"/>
<path d="M2620 3306 c0 -2 8 -10 18 -17 15 -13 16 -12 3 4 -13 16 -21 21 -21
13z"/>
<path d="M2753 3225 c0 -8 4 -12 9 -9 5 3 6 10 3 15 -9 13 -12 11 -12 -6z"/>
<path d="M2833 3185 c0 -8 4 -12 9 -9 5 3 6 10 3 15 -9 13 -12 11 -12 -6z"/>
<path d="M870 3119 c0 -5 5 -7 10 -4 6 3 10 8 10 11 0 2 -4 4 -10 4 -5 0 -10
-5 -10 -11z"/>
<path d="M854 3062 c4 -3 14 -7 22 -8 9 -1 13 0 10 4 -4 3 -14 7 -22 8 -9 1
-13 0 -10 -4z"/>
<path d="M2930 3031 c0 -6 4 -13 10 -16 6 -3 7 1 4 9 -7 18 -14 21 -14 7z"/>
<path d="M2940 2991 c0 -6 4 -13 10 -16 6 -3 7 1 4 9 -7 18 -14 21 -14 7z"/>
<path d="M887 2724 c-3 -3 -3 -13 0 -22 4 -9 2 -13 -4 -9 -5 3 -10 0 -10 -8 0
-8 4 -15 9 -15 4 0 8 5 8 11 0 5 4 8 8 5 5 -3 8 4 7 14 -1 23 -9 33 -18 24z"/>
<path d="M3126 2628 c3 -5 10 -6 15 -3 13 9 11 12 -6 12 -8 0 -12 -4 -9 -9z"/>
<path d="M3175 2561 c-3 -6 -12 -8 -18 -4 -8 5 -8 2 0 -9 7 -8 9 -19 5 -23 -4
-5 -1 -5 6 -1 7 4 10 11 7 16 -3 4 1 10 7 13 7 2 10 7 7 11 -4 4 -10 2 -14 -3z"/>
<path d="M3196 2541 c-3 -5 2 -15 12 -22 15 -12 16 -12 5 2 -7 9 -10 19 -6 22
3 4 4 7 0 7 -3 0 -8 -4 -11 -9z"/>
<path d="M799 2488 c-5 -18 -6 -38 -1 -34 7 8 12 36 6 36 -2 0 -4 -1 -5 -2z"/>
<path d="M3246 2482 c-3 -5 1 -9 9 -9 8 0 12 4 9 9 -3 4 -7 8 -9 8 -2 0 -6 -4
-9 -8z"/>
<path d="M773 2335 c0 -8 4 -12 9 -9 5 3 6 10 3 15 -9 13 -12 11 -12 -6z"/>
<path d="M3297 2283 c-10 -10 5 -33 22 -33 13 0 13 2 2 9 -11 7 -11 9 0 13 10
3 9 6 -3 10 -9 4 -18 4 -21 1z"/>
<path d="M766 2262 c-3 -5 0 -9 7 -9 7 0 17 -2 24 -4 6 -2 13 0 15 5 4 11 -39
19 -46 8z"/>
<path d="M3313 2188 c-2 -18 0 -20 7 -8 12 18 13 30 2 30 -4 0 -9 -10 -9 -22z"/>
<path d="M3276 2013 c-6 -14 -5 -15 5 -6 7 7 10 15 7 18 -3 3 -9 -2 -12 -12z"/>
<path d="M795 2010 c3 -5 8 -10 11 -10 2 0 4 5 4 10 0 6 -5 10 -11 10 -5 0 -7
-4 -4 -10z"/>
<path d="M3235 1980 c-3 -6 1 -7 9 -4 18 7 21 14 7 14 -6 0 -13 -4 -16 -10z"/>
<path d="M3228 1913 c7 -3 16 -2 19 1 4 3 -2 6 -13 5 -11 0 -14 -3 -6 -6z"/>
<path d="M3234 1876 c-3 -8 -1 -22 4 -32 7 -13 9 -10 8 15 -1 34 -4 38 -12 17z"/>
<path d="M660 1858 c0 -4 4 -8 9 -8 6 0 12 4 15 8 3 5 -1 9 -9 9 -8 0 -15 -4
-15 -9z"/>
<path d="M3257 1746 c-7 -18 28 -52 38 -37 6 11 5 12 -17 15 -7 1 -12 9 -10
19 3 21 -4 23 -11 3z"/>
<path d="M3310 1695 c0 -8 4 -15 8 -15 5 0 9 7 9 15 0 8 -4 15 -9 15 -4 0 -8
-7 -8 -15z"/>
<path d="M465 1660 c-3 -6 1 -7 9 -4 18 7 21 14 7 14 -6 0 -13 -4 -16 -10z"/>
<path d="M3331 1653 c6 -7 17 -13 23 -12 7 0 6 2 -2 6 -6 2 -10 8 -8 12 3 4
-1 8 -9 8 -11 0 -12 -4 -4 -14z"/>
<path d="M475 1602 c3 -3 -3 -11 -13 -19 -15 -13 -15 -13 5 -4 27 13 36 14 28
2 -10 -18 13 -21 26 -4 10 12 10 15 1 9 -7 -4 -14 -1 -18 7 -2 7 -11 14 -19
14 -8 0 -13 -3 -10 -5z"/>
<path d="M439 1533 c-12 -16 -12 -17 2 -6 9 7 19 10 22 6 4 -3 7 -1 7 5 0 17
-16 15 -31 -5z"/>
<path d="M3476 1508 c3 -5 10 -6 15 -3 13 9 11 12 -6 12 -8 0 -12 -4 -9 -9z"/>
<path d="M437 1484 c-3 -3 -3 -13 0 -21 3 -8 0 -19 -8 -25 -12 -8 -11 -9 1 -5
8 2 15 16 16 30 1 29 1 30 -9 21z"/>
<path d="M3526 1422 c-2 -4 0 -14 6 -22 8 -12 9 -12 5 2 -3 9 -1 19 6 22 9 3
9 5 0 5 -6 1 -14 -3 -17 -7z"/>
<path d="M440 1404 c6 -6 7 -14 3 -17 -3 -4 -3 -7 0 -7 3 0 11 8 16 18 7 14 6
18 -9 18 -13 0 -16 -4 -10 -12z"/>
<path d="M3575 1340 c3 -5 8 -10 11 -10 2 0 4 5 4 10 0 6 -5 10 -11 10 -5 0
-7 -4 -4 -10z"/>
<path d="M3595 1320 c-3 -6 1 -7 9 -4 18 7 21 14 7 14 -6 0 -13 -4 -16 -10z"/>
<path d="M3734 1158 c9 -16 12 -16 14 -3 2 8 9 12 15 9 7 -4 9 -3 4 1 -4 5
-16 9 -26 10 -16 1 -17 -1 -7 -17z"/>
<path d="M313 1105 c0 -8 4 -15 9 -15 4 0 8 4 8 9 0 6 -4 12 -8 15 -5 3 -9 -1
-9 -9z"/>
<path d="M3800 1080 c-8 -5 -10 -10 -5 -10 6 0 17 5 25 10 8 5 11 10 5 10 -5
0 -17 -5 -25 -10z"/>
<path d="M3833 988 c-2 -18 0 -20 7 -8 12 18 13 30 2 30 -4 0 -9 -10 -9 -22z"/>
<path d="M3869 923 c-6 -35 -5 -54 4 -60 6 -3 7 -1 3 5 -3 6 2 13 11 15 17 4
17 5 0 6 -14 1 -17 6 -12 21 3 11 4 20 1 20 -3 0 -7 -3 -7 -7z"/>
<path d="M3875 660 c3 -5 8 -10 11 -10 2 0 4 5 4 10 0 6 -5 10 -11 10 -5 0 -7
-4 -4 -10z"/>
<path d="M3866 358 c3 -5 10 -6 15 -3 13 9 11 12 -6 12 -8 0 -12 -4 -9 -9z"/>
<path d="M3966 342 c-3 -5 1 -9 9 -9 8 0 12 4 9 9 -3 4 -7 8 -9 8 -2 0 -6 -4
-9 -8z"/>
<path d="M4032 309 c1 -13 6 -30 12 -38 9 -12 7 -13 -6 -8 -10 3 -18 2 -18 -3
0 -6 7 -10 15 -10 17 0 20 -16 5 -25 -6 -4 -8 -10 -5 -15 3 -5 1 -11 -5 -15
-5 -3 -10 -10 -10 -16 0 -12 27 -12 35 1 4 6 -1 7 -12 3 -17 -6 -17 -5 -2 13
16 18 17 51 5 103 -7 33 -15 38 -14 10z"/>
<path d="M3998 303 c7 -3 16 -2 19 1 4 3 -2 6 -13 5 -11 0 -14 -3 -6 -6z"/>
</g>
</svg>
